<svg width="24" height="24" viewBox="0 0 24 24" fill="none" xmlns="http://www.w3.org/2000/svg">
<g clip-path="url(#clip0_113_56717)">
<path d="M9.93801 14.0627C7.64725 11.772 7.13001 9.48122 7.01332 8.56343C6.98071 8.30966 7.06804 8.05516 7.2496 7.87488L9.10339 6.02191C9.37608 5.74939 9.42448 5.32466 9.22008 4.99778L6.26849 0.414603C6.04236 0.0526374 5.57805 -0.0779998 5.19635 0.112948L0.458009 2.34453C0.149344 2.49652 -0.032209 2.82447 0.00283653 3.16674C0.251112 5.52536 1.27939 11.3234 6.97732 17.0218C12.6753 22.7201 18.4725 23.748 20.8324 23.9963C21.1746 24.0313 21.5026 23.8498 21.6546 23.5411L23.8861 18.8027C24.0764 18.4219 23.9466 17.9588 23.5861 17.7323L19.003 14.7815C18.6763 14.5769 18.2516 14.6249 17.9788 14.8974L16.1259 16.7512C15.9456 16.9327 15.6911 17.02 15.4373 16.9874C14.5195 16.8707 12.2288 16.3535 9.93801 14.0627Z" fill="#1DA84F"/>
<path d="M19.0344 12.8283C18.5774 12.8283 18.2068 12.4578 18.2068 12.0007C18.203 8.57437 15.4263 5.79772 11.9999 5.79384C11.5429 5.79384 11.1724 5.42332 11.1724 4.96626C11.1724 4.50919 11.5429 4.13867 11.9999 4.13867C16.3401 4.14346 19.8572 7.66063 19.862 12.0007C19.862 12.4578 19.4915 12.8283 19.0344 12.8283Z" fill="#1DA84F"/>
<path d="M23.1724 12.8276C22.7153 12.8276 22.3448 12.4571 22.3448 12C22.3384 6.28936 17.7106 1.66156 11.9999 1.65517C11.5429 1.65517 11.1724 1.28465 11.1724 0.827586C11.1724 0.370523 11.5429 0 11.9999 0C18.6243 0.0072976 23.9927 5.37561 23.9999 12C23.9999 12.2195 23.9128 12.43 23.7576 12.5852C23.6024 12.7404 23.3919 12.8276 23.1724 12.8276Z" fill="#1DA84F"/>
</g>
<defs>
<clipPath id="clip0_113_56717">
<rect width="24" height="24" fill="white"/>
</clipPath>
</defs>
</svg>
