<svg width="75" height="75" viewBox="0 0 75 75" fill="none" xmlns="http://www.w3.org/2000/svg">
<path d="M1.2876 17.7243H17.5783V1.28711L1.2876 17.7243Z" fill="#1DA84F"/>
<path d="M57.2754 39.6973C47.583 39.6973 39.6973 47.583 39.6973 57.2754C39.6973 66.9678 47.583 75 57.2754 75C66.9678 75 75 66.9678 75 57.2754C75 47.583 66.9678 39.6973 57.2754 39.6973ZM65.4207 56.6316L56.6316 65.4207C55.7733 66.2789 54.3828 66.2789 53.5245 65.4207L49.13 61.0261C48.2717 60.1679 48.2717 58.7773 49.13 57.919C49.9882 57.0608 51.3788 57.0608 52.2371 57.919L55.0781 60.7601L62.3137 53.5245C63.172 52.6663 64.5625 52.6663 65.4208 53.5245C66.2791 54.3828 66.2791 55.7733 65.4207 56.6316Z" fill="#1DA84F"/>
<path d="M10.9863 48.4863H37.1653C40.5655 40.7401 48.2884 35.3027 57.2754 35.3027V6.5918C57.2754 2.95693 54.3185 0 50.6836 0H21.9727V19.9219C21.9727 21.1364 20.9899 22.1191 19.7754 22.1191H0V68.2617C0 71.8966 2.95693 75 6.5918 75H44.2277C39.9668 71.8274 36.8452 67.0585 35.7469 61.6699H10.9863C9.77183 61.6699 8.78906 60.6872 8.78906 59.4727C8.78906 58.2582 9.77183 57.2754 10.9863 57.2754H35.3027C35.3027 55.7707 35.4573 54.3013 35.7469 52.8809H10.9863C9.77183 52.8809 8.78906 51.8981 8.78906 50.6836C8.78906 49.4691 9.77183 48.4863 10.9863 48.4863ZM28.5645 13.3301H46.2891C47.5036 13.3301 48.4863 14.3128 48.4863 15.5273C48.4863 16.7418 47.5036 17.7246 46.2891 17.7246H28.5645C27.35 17.7246 26.3672 16.7418 26.3672 15.5273C26.3672 14.3128 27.35 13.3301 28.5645 13.3301ZM28.5645 22.1191H46.2891C47.5036 22.1191 48.4863 23.1019 48.4863 24.3164C48.4863 25.5309 47.5036 26.5137 46.2891 26.5137H28.5645C27.35 26.5137 26.3672 25.5309 26.3672 24.3164C26.3672 23.1019 27.35 22.1191 28.5645 22.1191ZM10.9863 30.9082H46.2891C47.5036 30.9082 48.4863 31.891 48.4863 33.1055C48.4863 34.32 47.5036 35.3027 46.2891 35.3027H10.9863C9.77183 35.3027 8.78906 34.32 8.78906 33.1055C8.78906 31.891 9.77183 30.9082 10.9863 30.9082ZM10.9863 39.6973H38.324C39.5385 39.6973 40.5212 40.68 40.5212 41.8945C40.5212 43.109 39.5385 44.0918 38.324 44.0918H10.9863C9.77183 44.0918 8.78906 43.109 8.78906 41.8945C8.78906 40.68 9.77183 39.6973 10.9863 39.6973Z" fill="#1DA84F"/>
</svg>
