<svg width="100" height="100" viewBox="0 0 100 100" fill="none" xmlns="http://www.w3.org/2000/svg">
<path d="M50 0C22.3663 0 0 22.3625 0 50C0 58.77 2.28729 67.3355 6.63071 74.8901L0.188446 94.8959C-0.260925 96.2906 0.108337 97.8195 1.14441 98.8556C2.17056 99.8817 3.69568 100.265 5.10406 99.8116L25.1099 93.3693C32.6645 97.7127 41.23 100 50 100C77.6337 100 100 77.6375 100 50C100 22.3663 77.6375 0 50 0ZM50 92.1875C42.0784 92.1875 34.3567 89.9773 27.6695 85.7956C26.7075 85.1944 25.5127 85.0319 24.4011 85.3897L9.95941 90.0406L14.6103 75.5989C14.9628 74.5033 14.814 73.307 14.2036 72.3305C10.0227 65.6433 7.8125 57.9216 7.8125 50C7.8125 26.738 26.738 7.8125 50 7.8125C73.262 7.8125 92.1875 26.738 92.1875 50C92.1875 73.262 73.262 92.1875 50 92.1875ZM54.8828 50C54.8828 52.6962 52.697 54.8828 50 54.8828C47.303 54.8828 45.1172 52.6962 45.1172 50C45.1172 47.303 47.303 45.1172 50 45.1172C52.697 45.1172 54.8828 47.303 54.8828 50ZM74.4141 50C74.4141 52.6962 72.2282 54.8828 69.5312 54.8828C66.8343 54.8828 64.6484 52.6962 64.6484 50C64.6484 47.303 66.8343 45.1172 69.5312 45.1172C72.2282 45.1172 74.4141 47.303 74.4141 50ZM35.3516 50C35.3516 52.6962 33.1657 54.8828 30.4688 54.8828C27.7725 54.8828 25.5859 52.6962 25.5859 50C25.5859 47.303 27.7725 45.1172 30.4688 45.1172C33.1657 45.1172 35.3516 47.303 35.3516 50Z" fill="#1DA84F"/>
</svg>
