<svg width="75" height="75" viewBox="0 0 75 75" fill="none" xmlns="http://www.w3.org/2000/svg">
<path d="M64.0166 10.9834C56.9336 3.90073 47.5166 0 37.5 0C27.4834 0 18.0664 3.90073 10.9834 10.9834C3.90073 18.0664 0 27.4834 0 37.5C0 47.5166 3.90073 56.9336 10.9834 64.0166C18.0664 71.0993 27.4834 75 37.5 75C47.5166 75 56.9336 71.0993 64.0166 64.0166C71.0993 56.9336 75 47.5166 75 37.5C75 27.4834 71.0993 18.0664 64.0166 10.9834ZM62.4628 62.4628C55.795 69.1307 46.9298 72.8027 37.5 72.8027C28.0702 72.8027 19.205 69.1307 12.5372 62.4628C5.86934 55.795 2.19727 46.9298 2.19727 37.5C2.19727 28.0702 5.86934 19.205 12.5372 12.5372C19.205 5.86934 28.0702 2.19727 37.5 2.19727C46.9298 2.19727 55.795 5.86934 62.4628 12.5372C69.1307 19.205 72.8027 28.0702 72.8027 37.5C72.8027 46.9298 69.1307 55.795 62.4628 62.4628Z" fill="#1DA84F"/>
<path d="M37.5 11.7422C36.8933 11.7422 36.4014 12.2341 36.4014 12.8408V17.5377C36.4014 18.1444 36.8933 18.6363 37.5 18.6363C38.1067 18.6363 38.5986 18.1446 38.5986 17.5378V12.8408C38.5986 12.2341 38.1067 11.7422 37.5 11.7422Z" fill="#1DA84F"/>
<path d="M37.5 56.3633C36.8933 56.3633 36.4014 56.8552 36.4014 57.4619V62.1588C36.4014 62.7655 36.8933 63.2574 37.5 63.2574C38.1067 63.2574 38.5986 62.7655 38.5986 62.1588V57.4619C38.5986 56.8552 38.1067 56.3633 37.5 56.3633Z" fill="#1DA84F"/>
<path d="M62.1588 36.4023H57.4619C56.8552 36.4023 56.3633 36.8942 56.3633 37.501C56.3633 38.1077 56.8552 38.5996 57.4619 38.5996H62.1588C62.7655 38.5996 63.2574 38.1077 63.2574 37.501C63.2574 36.8942 62.7655 36.4023 62.1588 36.4023Z" fill="#1DA84F"/>
<path d="M17.5377 36.4023H12.8408C12.2341 36.4023 11.7422 36.8942 11.7422 37.501C11.7422 38.1077 12.2341 38.5996 12.8408 38.5996H17.5377C18.1444 38.5996 18.6363 38.1077 18.6363 37.501C18.6363 36.8942 18.1444 36.4023 17.5377 36.4023Z" fill="#1DA84F"/>
<path d="M18.7278 25.3939L16.694 24.2197C16.1684 23.9162 15.4966 24.0964 15.1933 24.6218C14.8899 25.1472 15.0699 25.8192 15.5954 26.1225L17.6292 27.2967C17.8021 27.3967 17.9911 27.4441 18.1774 27.4441C18.5571 27.4441 18.9264 27.2469 19.1299 26.8946C19.4333 26.3692 19.2532 25.6973 18.7278 25.3939Z" fill="#1DA84F"/>
<path d="M59.4045 48.8783L57.3708 47.7041C56.8453 47.4006 56.1734 47.5807 55.87 48.1062C55.5667 48.6316 55.7467 49.3035 56.2721 49.6069L58.3059 50.7811C58.4789 50.881 58.6679 50.9285 58.8542 50.9285C59.2339 50.9285 59.6032 50.7313 59.8066 50.379C60.11 49.8536 59.93 49.1817 59.4045 48.8783Z" fill="#1DA84F"/>
<path d="M50.379 15.1943C49.8535 14.8908 49.1816 15.071 48.8782 15.5964L47.704 17.6302C47.4006 18.1556 47.5807 18.8276 48.1061 19.1309C48.2791 19.2308 48.4681 19.2783 48.6544 19.2783C49.0341 19.2783 49.4034 19.0811 49.6068 18.7288L50.781 16.695C51.0844 16.1696 50.9044 15.4977 50.379 15.1943Z" fill="#1DA84F"/>
<path d="M26.8941 55.8701C26.3685 55.5666 25.6966 55.7467 25.3934 56.2722L24.2191 58.306C23.9158 58.8314 24.0958 59.5034 24.6212 59.8067C24.7942 59.9066 24.9832 59.9541 25.1695 59.9541C25.5492 59.9541 25.9185 59.7569 26.122 59.4046L27.2962 57.3708C27.5996 56.8454 27.4195 56.1735 26.8941 55.8701Z" fill="#1DA84F"/>
<path d="M59.8066 24.6217C59.5033 24.0963 58.8312 23.9163 58.3059 24.2196L56.2721 25.3939C55.7467 25.6972 55.5667 26.3691 55.87 26.8946C56.0735 27.247 56.4428 27.444 56.8225 27.444C57.0088 27.444 57.1978 27.3966 57.3708 27.2967L59.4045 26.1225C59.93 25.8191 60.11 25.1472 59.8066 24.6217Z" fill="#1DA84F"/>
<path d="M19.1299 48.1062C18.8265 47.5806 18.1546 47.4006 17.6292 47.7041L15.5954 48.8783C15.0699 49.1817 14.8899 49.8536 15.1933 50.3791C15.3967 50.7315 15.766 50.9285 16.1457 50.9285C16.332 50.9285 16.521 50.8811 16.694 50.7812L18.7278 49.6069C19.2532 49.3037 19.4333 48.6318 19.1299 48.1062Z" fill="#1DA84F"/>
<path d="M27.2962 17.6283L26.122 15.5945C25.8186 15.0689 25.1467 14.8889 24.6212 15.1924C24.0958 15.4958 23.9158 16.1677 24.2191 16.6931L25.3934 18.7269C25.5968 19.0794 25.9661 19.2764 26.3458 19.2764C26.5321 19.2764 26.7211 19.2289 26.8941 19.129C27.4195 18.8256 27.5996 18.1537 27.2962 17.6283Z" fill="#1DA84F"/>
<path d="M50.781 58.306L49.6068 56.2722C49.3036 55.7467 48.6315 55.5666 48.1061 55.8701C47.5807 56.1735 47.4006 56.8454 47.704 57.3708L48.8782 59.4046C49.0817 59.7571 49.451 59.9541 49.8307 59.9541C50.017 59.9541 50.206 59.9066 50.379 59.8067C50.9044 59.5034 51.0844 58.8314 50.781 58.306Z" fill="#1DA84F"/>
<path d="M53.8507 34.9843C53.7585 34.3848 53.1986 33.9733 52.5978 34.0656L40.5607 35.9174C39.9863 34.8109 38.8303 34.0528 37.4999 34.0528C36.9496 34.0528 36.4293 34.1832 35.9672 34.4136L24.1859 22.6323C23.7569 22.2033 23.0612 22.2033 22.6323 22.6323C22.2033 23.0614 22.2033 23.757 22.6323 24.1859L34.4136 35.9672C34.1832 36.4293 34.0528 36.9496 34.0528 37.4999C34.0528 39.4007 35.5993 40.947 37.4999 40.947C39.1997 40.947 40.6152 39.7099 40.8956 38.0891L52.932 36.2374C53.5316 36.1449 53.9429 35.584 53.8507 34.9843ZM37.4998 38.7497C36.8106 38.7497 36.25 38.189 36.25 37.4999C36.25 36.8109 36.8107 36.2501 37.4998 36.2501C38.1888 36.2501 38.7496 36.8109 38.7496 37.4999C38.7496 38.189 38.189 38.7497 37.4998 38.7497Z" fill="#1DA84F"/>
<path d="M57.2381 14.3171C51.4286 9.36061 44.0132 6.78615 36.3572 7.07003C28.6585 7.35465 21.4164 10.5136 15.9654 15.9646C10.5145 21.4155 7.35553 28.6576 7.07091 36.3564C6.78776 44.0121 9.36149 51.4278 14.3179 57.2373C14.5352 57.492 14.8437 57.6228 15.1542 57.6228C15.4065 57.6228 15.6599 57.5365 15.8667 57.36C16.3283 56.9663 16.3832 56.2728 15.9895 55.8112C11.3915 50.4218 9.00377 43.5416 9.26656 36.4375C9.53068 29.2948 12.4615 22.5758 17.5191 17.5182C22.5766 12.4605 29.2957 9.5298 36.4384 9.26569C43.5429 9.00304 50.4227 11.3906 55.8121 15.9886C56.2735 16.3823 56.9671 16.3274 57.3609 15.8658C57.7546 15.4043 57.6997 14.7108 57.2381 14.3171Z" fill="#1DA84F"/>
<path d="M60.6822 17.7626C60.2885 17.301 59.595 17.2459 59.1335 17.6398C58.6719 18.0336 58.617 18.727 59.0107 19.1886C63.6087 24.5781 65.9963 31.4584 65.7336 38.5624C65.4695 45.7051 62.5386 52.424 57.4811 57.4817C52.4236 62.5394 45.7045 65.4701 38.5618 65.7342C31.4585 65.9971 24.5775 63.6094 19.1881 59.0113C18.7266 58.6175 18.033 58.6725 17.6393 59.134C17.2455 59.5956 17.3005 60.2891 17.762 60.6828C23.2826 65.3927 30.2532 67.9509 37.5023 67.9509C37.8817 67.9509 38.2622 67.9439 38.6431 67.9298C46.3419 67.6452 53.5839 64.4863 59.0349 59.0353C64.4859 53.5843 67.6448 46.3423 67.9294 38.6435C68.2124 30.9879 65.6387 23.5722 60.6822 17.7626Z" fill="#1DA84F"/>
</svg>
