<svg width="24" height="24" viewBox="0 0 24 24" fill="none" xmlns="http://www.w3.org/2000/svg">
<g clip-path="url(#clip0_2_209)">
<path d="M9.93801 14.0618C7.64725 11.771 7.13001 9.48025 7.01332 8.56245C6.98071 8.30868 7.06804 8.05419 7.2496 7.8739L9.10339 6.02094C9.37608 5.74841 9.42448 5.32369 9.22008 4.9968L6.26849 0.413627C6.04236 0.0516608 5.57805 -0.0789763 5.19635 0.111972L0.458009 2.34356C0.149344 2.49555 -0.032209 2.8235 0.00283653 3.16576C0.251112 5.52438 1.27939 11.3225 6.97732 17.0208C12.6753 22.7191 18.4725 23.747 20.8324 23.9953C21.1746 24.0303 21.5026 23.8488 21.6546 23.5401L23.8861 18.8018C24.0764 18.4209 23.9466 17.9578 23.5861 17.7313L19.003 14.7805C18.6763 14.5759 18.2516 14.624 17.9788 14.8964L16.1259 16.7502C15.9456 16.9317 15.6911 17.0191 15.4373 16.9865C14.5195 16.8698 12.2288 16.3525 9.93801 14.0618Z" fill="black"/>
<path d="M19.0344 12.8274C18.5774 12.8274 18.2068 12.4568 18.2068 11.9998C18.203 8.5734 15.4263 5.79674 11.9999 5.79287C11.5429 5.79287 11.1724 5.42234 11.1724 4.96528C11.1724 4.50822 11.5429 4.1377 11.9999 4.1377C16.3401 4.14248 19.8572 7.65965 19.862 11.9998C19.862 12.4568 19.4915 12.8274 19.0344 12.8274Z" fill="black"/>
<path d="M23.1724 12.8276C22.7153 12.8276 22.3448 12.4571 22.3448 12C22.3384 6.28936 17.7106 1.66156 11.9999 1.65517C11.5429 1.65517 11.1724 1.28465 11.1724 0.827586C11.1724 0.370523 11.5429 0 11.9999 0C18.6243 0.0072976 23.9927 5.37561 23.9999 12C23.9999 12.2195 23.9128 12.43 23.7576 12.5852C23.6024 12.7404 23.3919 12.8276 23.1724 12.8276Z" fill="black"/>
</g>
<defs>
<clipPath id="clip0_2_209">
<rect width="24" height="24" fill="white"/>
</clipPath>
</defs>
</svg>
