<svg width="16" height="16" viewBox="0 0 16 16" fill="none" xmlns="http://www.w3.org/2000/svg">
<path d="M15.8631 0.139507C15.7286 0.0047831 15.5262 -0.035187 15.3508 0.0383468L0.287481 6.35135C0.100069 6.42988 -0.0153731 6.62042 0.00165875 6.82305C0.0186906 7.02568 0.164321 7.19422 0.362203 7.24032L6.92516 8.76893C7.05194 8.79846 7.15107 8.89719 7.18113 9.02385L8.75053 15.6377C8.79735 15.835 8.96567 15.9799 9.16764 15.9966C9.18061 15.9976 9.19352 15.9981 9.20636 15.9981C9.39353 15.9981 9.56444 15.886 9.63791 15.711L15.9634 0.652431C16.0371 0.476924 15.9975 0.27423 15.8631 0.139507Z" fill="#049A3B"/>
</svg>
